Coordinates
version=1
nRows=54
nColumns=12
inDegrees=yes

Units are S.I. units (second, meters, Newtons, ...)
Angles are in degrees

endheader
time	SC_y	SC_z	SC_x	AC_y	AC_z	AC_x	GH_y	GH_z	GH_yy	EL_x	PS_y
       0.0              -11.57          30.65           42.8          39.71         -17.29          -9.11         -13.72          80.26         -152.4          116.5          121.0
   0.01291              -11.57          30.65           42.8          39.71         -17.29         -9.111         -13.73          80.26         -152.4          116.5          121.0
   0.02582              -11.57          30.65          42.79          39.71         -17.29         -9.113         -13.75          80.26         -152.3          116.5          121.0
   0.03873              -11.57          30.65          42.79          39.72         -17.29         -9.114         -13.76          80.26         -152.3          116.5          121.0
   0.05164              -11.57          30.65          42.78          39.72         -17.29         -9.116         -13.78          80.26         -152.2          116.5          121.0
   0.06455              -11.57          30.65          42.78          39.72         -17.28         -9.118         -13.79          80.25         -152.2          116.5          121.0
   0.07746              -11.57          30.65          42.77          39.72         -17.28          -9.12         -13.81          80.25         -152.1          116.4          121.0
   0.09037              -11.58          30.65          42.77          39.73         -17.28         -9.122         -13.83          80.25         -152.1          116.4          121.0
    0.1033              -11.58          30.65          42.76          39.73         -17.28         -9.124         -13.85          80.24         -152.0          116.4          121.0
    0.1162              -11.58          30.65          42.75          39.73         -17.27         -9.126         -13.87          80.24         -152.0          116.4          121.0
    0.1291              -11.58          30.65          42.75          39.73         -17.27         -9.129         -13.89          80.24         -151.9          116.4          121.0
     0.142              -11.59          30.65          42.74          39.74         -17.27         -9.132         -13.92          80.23         -151.9          116.3          121.0
    0.1549              -11.59          30.65          42.73          39.74         -17.26         -9.135         -13.94          80.23         -151.8          116.3          121.0
    0.1678              -11.59          30.65          42.72          39.75         -17.26         -9.138         -13.97          80.23         -151.7          116.3          121.0
    0.1807              -11.59          30.65          42.71          39.75         -17.26         -9.141          -14.0          80.22         -151.6          116.2          121.0
    0.1937               -11.6          30.66           42.7          39.75         -17.25         -9.145         -14.03          80.22         -151.5          116.2          121.0
    0.2066               -11.6          30.66          42.69          39.76         -17.25         -9.149         -14.07          80.21         -151.4          116.2          121.0
    0.2195              -11.61          30.66          42.68          39.76         -17.24         -9.154         -14.11           80.2         -151.3          116.1          121.0
    0.2324              -11.61          30.66          42.67          39.77         -17.24         -9.158         -14.15           80.2         -151.2          116.1          121.0
    0.2453              -11.62          30.66          42.65          39.78         -17.23         -9.164          -14.2          80.19         -151.1          116.0          121.0
    0.2582              -11.62          30.66          42.64          39.78         -17.22          -9.17         -14.25          80.18         -150.9          116.0          121.0
    0.2711              -11.63          30.66          42.62          39.79         -17.22         -9.176         -14.31          80.17         -150.8          115.9          121.0
     0.284              -11.63          30.66           42.6           39.8         -17.21         -9.183         -14.37          80.16         -150.6          115.8          121.0
    0.2969              -11.64          30.67          42.58          39.81          -17.2         -9.191         -14.44          80.15         -150.4          115.7          121.0
    0.3099              -11.65          30.67          42.55          39.82         -17.19           -9.2         -14.52          80.14         -150.2          115.7          121.0
    0.3228              -11.66          30.67          42.53          39.83         -17.18          -9.21         -14.61          80.13         -150.0          115.6          121.0
    0.3357              -11.67          30.67           42.5          39.84         -17.17         -9.221          -14.7          80.11         -149.7          115.4          121.0
    0.3486              -11.68          30.68          42.46          39.86         -17.15         -9.233         -14.81           80.1         -149.4          115.3          121.0
    0.3615              -11.69          30.68          42.42          39.88         -17.14         -9.247         -14.94          80.08         -149.1          115.2          121.0
    0.3744              -11.71          30.68          42.38           39.9         -17.12         -9.263         -15.08          80.06         -148.7          115.0          121.0
    0.3873              -11.72          30.69          42.33          39.92          -17.1         -9.281         -15.24          80.03         -148.2          114.8          121.0
    0.4002              -11.74          30.69          42.28          39.94         -17.08         -9.302         -15.42          80.01         -147.7          114.6          121.0
    0.4131              -11.76           30.7          42.21          39.97         -17.05         -9.325         -15.63          79.97         -147.2          114.4          121.0
     0.426              -11.79           30.7          42.13           40.0         -17.02         -9.353         -15.88          79.94         -146.5          114.1          121.0
     0.439              -11.82          30.71          42.05          40.04         -16.98         -9.386         -16.16          79.89         -145.7          113.8          121.0
    0.4519              -11.86          30.72          41.94          40.09         -16.94         -9.424          -16.5          79.84         -144.8          113.4          121.0
    0.4648               -11.9          30.73          41.82          40.14         -16.89          -9.47         -16.91          79.78         -143.7          113.0          121.0
    0.4777              -11.95          30.74          41.67          40.21         -16.83         -9.524         -17.39          79.71         -142.3          112.4          121.0
    0.4906              -12.01          30.76          41.49          40.29         -16.75          -9.59         -17.97          79.62         -140.7          111.8          121.0
    0.5035              -12.08          30.77          41.27          40.39         -16.66         -9.671         -18.69          79.51         -138.8          111.0          120.9
    0.5164              -12.18           30.8           41.0          40.51         -16.55         -9.771         -19.57          79.37         -136.3          110.0          120.9
    0.5293              -12.29          30.82          40.66          40.66         -16.41         -9.895         -20.67          79.21         -133.3          108.8          120.9
    0.5422              -12.44          30.86          40.23          40.84         -16.24         -10.05         -22.05           79.0         -129.5          107.2          120.9
    0.5552              -12.62           30.9          39.69          41.08         -16.01         -10.25         -23.81          78.73         -124.7          105.2          120.8
    0.5681              -12.86          30.96          38.99          41.39         -15.73          -10.5         -26.07          78.38         -118.5          102.7          120.8
     0.581              -13.16          31.03           38.1          41.78         -15.36         -10.83         -28.96          77.94         -110.6          99.47          120.7
    0.5939              -13.54          31.13          36.96          42.29         -14.89         -11.25         -32.65          77.38         -100.4          95.33          120.6
    0.6068              -14.03          31.25          35.53          42.92          -14.3         -11.77         -37.29          76.68          -87.7          90.13          120.5
    0.6197              -14.62          31.39          33.79          43.69         -13.58         -12.41         -42.95          75.81         -72.17          83.79          120.4
    0.6326              -15.31          31.56          31.77          44.58         -12.75         -13.15         -49.51          74.82         -54.17          76.44          120.3
    0.6455              -16.05          31.74          29.58          45.55         -11.85         -13.96         -56.61          73.74         -34.68          68.48          120.1
    0.6584              -16.79          31.92          27.39          46.51         -10.95         -14.76         -63.71          72.65         -15.19          60.52          120.0
    0.6714              -17.48          32.08          25.37           47.4         -10.12          -15.5         -70.27          71.66          2.816          53.17          119.8
    0.6843              -18.07          32.23          23.62          48.17         -9.399         -16.14         -75.93          70.79          18.35          46.83          119.7
